<svg width="225" height="180" viewBox="0 0 225 180" fill="none" xmlns="http://www.w3.org/2000/svg">
<path d="M204.993 84.7154H144.052C137.84 84.8767 125.518 81.9075 125.921 68.7399C126.202 59.5347 126.09 40.1728 125.997 24.1156L125.993 23.3274C126 21 129.839 18.0991 133.466 22.3592C137.092 26.6193 141.02 30.589 142.531 32.0413C146.057 39.787 178.794 65.4446 187.356 71.2539C195.918 77.0632 215.056 85.293 224.122 73.1903C221.352 83.8406 209.2 84.7161 205.088 84.7154L204.993 84.7154Z" fill="#27C0A1"/>
<path d="M204.993 84.7154H144.052C137.84 84.8767 125.518 81.9075 125.921 68.7399C126.202 59.5347 126.09 40.1728 125.997 24.1156L125.993 23.3274C126 21 129.839 18.0991 133.466 22.3592C137.092 26.6193 141.02 30.589 142.531 32.0413C146.057 39.787 178.794 65.4446 187.356 71.2539C195.918 77.0632 215.056 85.293 224.122 73.1903C221.352 83.8406 209.2 84.7161 205.088 84.7154L204.993 84.7154Z" fill="#168773"/>
<path d="M219.598 54.2167C223.618 57.6989 226.539 63.8955 224.122 73.1903C215.056 85.293 195.918 77.0632 187.356 71.2539C178.794 65.4446 146.057 39.787 142.531 32.0413C139.006 20.4228 142.431 12.6771 148.071 8.80425C151.597 6.38372 159.655 0.574448 171.743 10.1786L219.598 54.2167Z" fill="#168773"/>
<path d="M219.598 54.2167C223.618 57.6989 226.539 63.8955 224.122 73.1903C215.056 85.293 195.918 77.0632 187.356 71.2539C178.794 65.4446 146.057 39.787 142.531 32.0413C139.006 20.4228 142.431 12.6771 148.071 8.80425C151.597 6.38372 159.655 0.574448 171.743 10.1786L219.598 54.2167Z" fill="#27C0A1"/>
<path d="M86.9642 173.31L27.5246 118.612C22.1603 113.765 20.3216 104.561 23.1676 99.2417C34.2478 90.5278 50.3644 96.0853 64.9701 108.44C80.7627 121.798 93.1741 135.544 104.758 151.041C116.342 166.539 110.802 178.635 101.428 179.603C96.0016 178.662 90.5863 176.158 86.9642 173.31Z" fill="#2F30A4"/>
<path d="M86.9642 173.31L27.5246 118.612C22.1603 113.765 20.3216 104.561 23.1676 99.2417C34.2478 90.5278 50.3644 96.0853 64.9701 108.44C80.7627 121.798 93.1741 135.544 104.758 151.041C116.342 166.539 110.802 178.635 101.428 179.603C96.0016 178.662 90.5863 176.158 86.9642 173.31Z" fill="#5859DD"/>
<path d="M42.1303 88.1134H103.071C109.283 87.952 121.605 90.9212 121.202 104.089C120.799 117.257 121.035 151.209 121.202 166.539C121.277 173.31 118.356 177.774 109.794 179.603C107.179 180.162 104.302 180.102 101.428 179.603C110.802 178.635 116.342 166.539 104.758 151.041C93.1741 135.544 80.7627 121.798 64.9701 108.44C50.3644 96.0853 34.2478 90.5278 23.1676 99.2417C28.3799 91.0058 30.7223 88.6134 42.1303 88.1134Z" fill="#5859DD"/>
<path d="M42.1303 88.1134H103.071C109.283 87.952 121.605 90.9212 121.202 104.089C120.799 117.257 121.035 151.209 121.202 166.539C121.277 173.31 118.356 177.774 109.794 179.603C107.179 180.162 104.302 180.102 101.428 179.603C110.802 178.635 116.342 166.539 104.758 151.041C93.1741 135.544 80.7627 121.798 64.9701 108.44C50.3644 96.0853 34.2478 90.5278 23.1676 99.2417C28.3799 91.0058 30.7223 88.6134 42.1303 88.1134Z" fill="#2F30A4"/>
<path d="M9.31736 50.347C4.28096 50.347 4.28102 57.1245 9.31736 57.1245H16.6203L20.3141 50.347H9.31736Z" fill="#D13828"/>
<path d="M104.711 85.2026C110.677 85.3571 122.017 81.3504 121.63 68.743C121.243 56.1357 121.46 27.6913 121.621 13.0136C121.676 8.00456 118.404 1.05198 109.697 0.124969C107.834 -0.073448 105.915 -0.0295839 104.003 0.213922C111.305 4.84106 108.787 23.7212 105.262 33.4033C101.736 43.0854 100.729 45.0218 95.4405 56.6404C91.3347 63.9019 86.6268 70.6794 70.0065 71.1636C75.0431 71.1636 76.3021 77.941 71.2656 77.941H45.0762C40.0398 77.941 39.9684 85.2026 45.0762 85.2026H52.1272H104.711Z" fill="#D13828"/>
<path d="M89.6486 37.2761C98.2371 37.7603 97.8605 52.3604 95.4405 56.6404C100.729 45.0218 101.736 43.0854 105.262 33.4033C108.787 23.7212 111.305 4.84106 104.003 0.213922C98.3337 0.935656 92.7171 3.41122 88.7386 6.53038L55.9053 36.6516C73.0437 36.93 78.5685 36.6516 89.6486 37.2761Z" fill="#F2653A"/>
<path d="M12.5911 67.7748C12.5911 69.9137 10.8925 71.6477 7.55466 71.6477C4.2168 71.6477 0 69.9137 0 67.7748C0 65.6359 4.2168 63.902 7.55466 63.902C10.8925 63.902 12.5911 65.6359 12.5911 67.7748Z" fill="#DC4F36"/>
<path d="M16.6203 57.1245L20.3141 50.347H57.1635C62.2001 50.347 62.2001 43.0854 57.1635 43.0854H28.9595C23.9231 43.0854 23.9231 36.3079 28.9595 36.3079C33.4143 36.3079 44.3819 36.4644 55.9053 36.6516C73.0437 36.93 78.5685 36.6516 89.6486 37.2761C98.2371 37.7603 97.8605 52.3604 95.4405 56.6404C91.3347 63.9019 86.6268 70.6794 70.0065 71.1636C68.0018 71.1636 64.9622 71.1713 61.2902 71.1807L61.2771 71.1807C52.0343 71.2042 38.7918 71.2379 27.9545 71.1843C25.3958 71.1716 23.0118 71.1635 20.9012 71.1635C14.8576 71.1635 14.8575 63.9019 20.9012 63.9019H57.1635C61.6965 63.9019 61.6965 57.1245 57.1635 57.1245H16.6203Z" fill="#F88558"/>
<path d="M161.166 173.31L220.606 118.612C223.114 116.67 226.27 109.892 223.628 99.7319C203.472 91.0119 189.874 109.408 171.239 125.868C151.696 143.129 128.429 165.564 140.517 179.603C148.217 180.343 155.626 177.667 161.166 173.31Z" fill="#F7814F"/>
<path d="M223.628 99.7319C220.606 88.1134 208.015 88.1134 206 88.1134H145.059C138.848 87.952 126.525 90.9212 126.928 104.089C127.331 117.257 127.096 151.208 126.928 166.539C126.854 173.31 130.444 178.635 140.517 179.603C128.429 165.564 151.696 143.129 171.239 125.868C189.874 109.408 203.472 91.0119 223.628 99.7319Z" fill="#D03A2A"/>
</svg>
